<svg version="1.1" xmlns="http://www.w3.org/2000/svg" xmlns:xlink="http://www.w3.org/1999/xlink" xml:space="preserve" xmlns:serif="http://www.serif.com/" style="fill-rule:evenodd;clip-rule:evenodd;stroke-linejoin:round;stroke-miterlimit:2;">
  <symbol id="2p-svg" viewBox="0 0 65 90">
   <g transform="matrix(1,0,0,1,-397.095,-919.828)">
        <g transform="matrix(4.16667,0,0,4.16667,0,0)">
            <g transform="matrix(0.295074,0,0,0.295074,-5.53775,29.5688)">
                <path d="M365.682,691.061L365.665,677.891C365.431,673.034 360.818,668.535 356.162,668.535L351.25,668.535C346.594,668.535 342.025,673.389 341.747,677.891L341.886,690.986C341.756,692.817 341.93,693.555 342.657,694.613L344.9,698.584C345.381,699.283 345.668,700.095 345.738,700.938L347.207,715.897C347.411,718.408 349.508,720.341 352.026,720.341L355.386,720.341C357.907,720.341 360.001,718.408 360.204,715.897L361.676,700.938C361.744,700.095 362.031,699.283 362.512,698.584L364.911,694.688C365.638,693.629 365.799,692.741 365.682,691.061ZM353.372,647.939C358.54,647.939 362.736,652.135 362.736,657.303C362.736,662.472 358.54,666.668 353.372,666.668C348.203,666.668 344.007,662.472 344.007,657.303C344.007,652.135 348.203,647.939 353.372,647.939Z" style="fill:rgb(63,63,63);fill-rule:nonzero;"/>
            </g>
        </g>
        <g transform="matrix(4.16667,0,0,4.16667,0,0)">
            <g transform="matrix(0.295074,0,0,0.295074,2.76339,29.5688)">
                <path d="M365.682,691.061L365.665,677.891C365.431,673.034 360.818,668.535 356.162,668.535L351.25,668.535C346.594,668.535 342.025,673.389 341.747,677.891L341.886,690.986C341.756,692.817 341.93,693.555 342.657,694.613L344.9,698.584C345.381,699.283 345.668,700.095 345.738,700.938L347.207,715.897C347.411,718.408 349.508,720.341 352.026,720.341L355.386,720.341C357.907,720.341 360.001,718.408 360.204,715.897L361.676,700.938C361.744,700.095 362.031,699.283 362.512,698.584L364.911,694.688C365.638,693.629 365.799,692.741 365.682,691.061ZM353.372,647.939C358.54,647.939 362.736,652.135 362.736,657.303C362.736,662.472 358.54,666.668 353.372,666.668C348.203,666.668 344.007,662.472 344.007,657.303C344.007,652.135 348.203,647.939 353.372,647.939Z" style="fill:rgb(63,63,63);fill-rule:nonzero;"/>
            </g>
        </g>
    </g>
  </symbol>

  <symbol id="basura" viewBox="0 0 20 24">
   <g transform="matrix(1,0,0,1,-1296.9,-703.568)">
        <path d="M1298.81,724.793L1297.69,712.663C1297.44,710.653 1298.71,709.759 1300.21,709.766L1313.85,709.766C1315.6,709.755 1316.15,710.76 1316.04,712.254L1314.75,724.793C1314.75,726.087 1313.69,727.151 1312.39,727.151L1301.17,727.151C1299.88,727.151 1298.81,726.087 1298.81,724.793ZM1301.35,713.697L1301.99,723.221C1301.99,723.652 1302.34,724.007 1302.77,724.007C1303.2,724.007 1303.56,723.652 1303.56,723.221L1302.93,713.697C1302.93,713.266 1302.57,712.911 1302.14,712.911C1301.71,712.911 1301.35,713.266 1301.35,713.697ZM1310.79,713.697L1310.18,723.221C1310.18,723.652 1310.54,724.007 1310.97,724.007C1311.4,724.007 1311.76,723.652 1311.76,723.221L1312.36,713.697C1312.36,713.266 1312.01,712.911 1311.57,712.911C1311.14,712.911 1310.79,713.266 1310.79,713.697ZM1306.07,713.697L1306.07,723.221C1306.07,723.652 1306.43,724.007 1306.86,724.007C1307.29,724.007 1307.64,723.652 1307.64,723.221L1307.64,713.697C1307.64,713.266 1307.29,712.911 1306.86,712.911C1306.43,712.911 1306.07,713.266 1306.07,713.697ZM1304.7,705.35C1304.72,704.363 1305.53,703.568 1306.52,703.568C1307.51,703.568 1308.32,704.363 1308.35,705.35L1314.76,705.35C1315.63,705.35 1316.34,706.058 1316.34,706.929C1316.34,707.801 1315.63,708.509 1314.76,708.509L1298.48,708.509C1297.61,708.509 1296.9,707.801 1296.9,706.929C1296.9,706.058 1297.61,705.35 1298.48,705.35L1304.7,705.35Z" style="fill:rgb(247,67,36);"/>
    </g>
  </symbol>

 <symbol id="cama" viewBox="0 0 27 20">
   <g transform="matrix(1,0,0,1,-89.6398,-867.306)">
        <g transform="matrix(0.540872,0,0,0.540872,-1178.93,349.235)">
            <path d="M2345.52,990.738C2345.58,994.847 2352.4,995.038 2352.47,990.709L2352.51,986.68L2387.56,986.835L2387.68,990.649C2387.64,994.59 2394.15,994.861 2394.2,990.661L2394.07,975.084C2394.35,971.157 2387.42,971.177 2387.46,975.091L2387.42,979.025L2352.47,979.099L2352.21,960.833C2352.24,956.749 2345.48,956.935 2345.43,960.884L2345.52,990.738ZM2360.33,965.818C2363.35,965.818 2365.8,968.273 2365.8,971.296C2365.8,974.32 2363.35,976.774 2360.33,976.774C2357.3,976.774 2354.85,974.32 2354.85,971.296C2354.85,968.273 2357.3,965.818 2360.33,965.818ZM2368.25,976.586L2384.05,976.455C2384.05,976.455 2384.16,975.067 2384.15,973.441C2384.14,970.771 2382.53,967.247 2378.62,967.173C2370.55,967.019 2368.29,967.037 2368.29,967.037L2368.25,976.586Z" style="fill:rgb(212,212,212);"/>
        </g>
    </g>
  </symbol>
  <symbol id="desayuno" viewBox="0 0 24 20">
    <g transform="matrix(1,0,0,1,-92.746,-918.543)">
        <g transform="matrix(0.424382,0,0,0.424382,-1102.95,-284.649)">
            <path d="M2819.51,2878.1C2821.02,2879.71 2822.85,2880.52 2824.99,2880.52L2863.74,2880.52C2865.88,2880.52 2867.71,2879.71 2869.22,2878.1C2869.98,2877.29 2870.55,2876.39 2870.93,2875.41C2871.09,2874.99 2871.05,2873.7 2870.58,2873.1C2869.97,2872.32 2868.86,2872.27 2868.86,2872.27L2819.76,2872.27C2819.76,2872.27 2818.78,2872.09 2818.05,2872.85C2817.56,2873.36 2817.45,2874.28 2817.54,2874.62C2817.89,2875.91 2818.55,2877.08 2819.51,2878.1ZM2831.77,2868.15L2853.08,2868.15C2854.94,2868.15 2856.53,2867.44 2857.87,2866.02C2859.2,2864.6 2859.87,2862.91 2859.87,2860.93L2859.87,2859.9L2861.8,2859.9C2865.01,2859.9 2867.75,2858.69 2870.02,2856.28C2872.29,2853.86 2873.43,2850.95 2873.43,2847.53C2873.43,2844.12 2872.29,2841.2 2870.02,2838.79C2867.75,2836.37 2865.01,2835.16 2861.8,2835.16L2829.25,2835.16C2827.04,2835.11 2825.1,2836.39 2824.99,2839.09L2824.99,2860.93C2824.99,2862.91 2825.66,2864.6 2826.99,2866.02C2828.32,2867.44 2829.91,2868.15 2831.77,2868.15ZM2859.87,2841.35L2861.8,2841.35C2863.42,2841.35 2864.79,2841.95 2865.92,2843.15C2867.05,2844.35 2867.62,2845.81 2867.62,2847.53C2867.62,2849.25 2867.05,2850.71 2865.92,2851.91C2864.79,2853.12 2863.42,2853.72 2861.8,2853.72L2859.87,2853.72L2859.87,2841.35Z" style="fill:rgb(212,212,212);"/>
        </g>
    </g>
  </symbol>
  <symbol id="info" viewBox="0 0 17 17">
     <g transform="matrix(1,0,0,1,-486.707,-868.67)">
        <g transform="matrix(0.405355,0,0,-0.405355,-1030.83,1363.07)">
            <path d="M3763.56,1179.99C3774.51,1179.99 3783.39,1188.88 3783.39,1199.83C3783.39,1210.78 3774.51,1219.66 3763.56,1219.66C3752.61,1219.66 3743.72,1210.78 3743.72,1199.83C3743.72,1188.88 3752.61,1179.99 3763.56,1179.99ZM3763.78,1213.19C3761.93,1213.19 3760.43,1211.7 3760.43,1209.85C3760.43,1208 3761.93,1206.5 3763.78,1206.5C3765.63,1206.5 3767.13,1208 3767.13,1209.85C3767.13,1211.7 3765.63,1213.19 3763.78,1213.19ZM3767.14,1200.66C3767.14,1202.52 3765.64,1204.03 3763.78,1204.03C3761.92,1204.03 3760.42,1202.52 3760.42,1200.66L3760.42,1190.33C3760.42,1188.48 3761.92,1186.97 3763.78,1186.97C3765.64,1186.97 3767.14,1188.48 3767.14,1190.33L3767.14,1200.66Z" />
        </g>
    </g>
  </symbol>
</svg>