<?xml version="1.0" encoding="UTF-8" standalone="no"?>
<!DOCTYPE svg PUBLIC "-//W3C//DTD SVG 1.1//EN" "http://www.w3.org/Graphics/SVG/1.1/DTD/svg11.dtd">
<svg class="p2-icon" viewBox="0 0 65 90" version="1.1" xmlns="http://www.w3.org/2000/svg" xmlns:xlink="http://www.w3.org/1999/xlink" xml:space="preserve" xmlns:serif="http://www.serif.com/" style="fill-rule:evenodd;clip-rule:evenodd;stroke-linejoin:round;stroke-miterlimit:2;">
    <g transform="matrix(1,0,0,1,-397.095,-919.828)">
        <g transform="matrix(4.16667,0,0,4.16667,0,0)">
            <g transform="matrix(0.295074,0,0,0.295074,-5.53775,29.5688)">
                <path d="M365.682,691.061L365.665,677.891C365.431,673.034 360.818,668.535 356.162,668.535L351.25,668.535C346.594,668.535 342.025,673.389 341.747,677.891L341.886,690.986C341.756,692.817 341.93,693.555 342.657,694.613L344.9,698.584C345.381,699.283 345.668,700.095 345.738,700.938L347.207,715.897C347.411,718.408 349.508,720.341 352.026,720.341L355.386,720.341C357.907,720.341 360.001,718.408 360.204,715.897L361.676,700.938C361.744,700.095 362.031,699.283 362.512,698.584L364.911,694.688C365.638,693.629 365.799,692.741 365.682,691.061ZM353.372,647.939C358.54,647.939 362.736,652.135 362.736,657.303C362.736,662.472 358.54,666.668 353.372,666.668C348.203,666.668 344.007,662.472 344.007,657.303C344.007,652.135 348.203,647.939 353.372,647.939Z" style="fill:rgb(63,63,63);fill-rule:nonzero;"/>
            </g>
        </g>
        <g transform="matrix(4.16667,0,0,4.16667,0,0)">
            <g transform="matrix(0.295074,0,0,0.295074,2.76339,29.5688)">
                <path d="M365.682,691.061L365.665,677.891C365.431,673.034 360.818,668.535 356.162,668.535L351.25,668.535C346.594,668.535 342.025,673.389 341.747,677.891L341.886,690.986C341.756,692.817 341.93,693.555 342.657,694.613L344.9,698.584C345.381,699.283 345.668,700.095 345.738,700.938L347.207,715.897C347.411,718.408 349.508,720.341 352.026,720.341L355.386,720.341C357.907,720.341 360.001,718.408 360.204,715.897L361.676,700.938C361.744,700.095 362.031,699.283 362.512,698.584L364.911,694.688C365.638,693.629 365.799,692.741 365.682,691.061ZM353.372,647.939C358.54,647.939 362.736,652.135 362.736,657.303C362.736,662.472 358.54,666.668 353.372,666.668C348.203,666.668 344.007,662.472 344.007,657.303C344.007,652.135 348.203,647.939 353.372,647.939Z"/>
            </g>
        </g>
    </g>
</svg>
