<?xml version="1.0" encoding="UTF-8" standalone="no"?>
<!DOCTYPE svg PUBLIC "-//W3C//DTD SVG 1.1//EN" "http://www.w3.org/Graphics/SVG/1.1/DTD/svg11.dtd">
<svg class="grid-icons" viewBox="0 0 21 19" version="1.1" xmlns="http://www.w3.org/2000/svg" xmlns:xlink="http://www.w3.org/1999/xlink" xml:space="preserve" xmlns:serif="http://www.serif.com/" style="fill-rule:evenodd;clip-rule:evenodd;stroke-linejoin:round;stroke-miterlimit:2;">
    <g transform="matrix(1,0,0,1,-324.076,-2120.11)">
        <g transform="matrix(0.35076,0,0,0.35076,-897.356,1688.66)">
            <path d="M3497.53,1281.87C3496.89,1281.87 3496.28,1281.63 3495.89,1281.21C3491.93,1276.83 3494.33,1274.15 3496.25,1272.01C3496.72,1271.49 3497.16,1270.99 3497.53,1270.47C3499.62,1267.56 3496.54,1265.25 3496.18,1265C3493.86,1263.35 3496.51,1261.1 3498.85,1262.73C3500.88,1264.13 3503.95,1267.86 3501.02,1271.95C3500.55,1272.61 3500.03,1273.18 3499.53,1273.74C3497.75,1275.73 3497.07,1276.62 3499.16,1279.46C3499.52,1279.95 3499.37,1281.21 3498.66,1281.59C3498.31,1281.78 3497.92,1281.87 3497.53,1281.87ZM3513.11,1281.87C3512.48,1281.87 3511.86,1281.63 3511.47,1281.21C3507.51,1276.83 3509.91,1274.15 3511.83,1272.01C3512.3,1271.49 3512.74,1270.99 3513.12,1270.47C3515.21,1267.56 3512.12,1265.25 3511.77,1265C3509.44,1263.35 3512.09,1261.1 3514.44,1262.73C3516.47,1264.13 3519.54,1267.86 3516.6,1271.95C3516.13,1272.61 3515.61,1273.18 3515.11,1273.74C3513.33,1275.73 3512.65,1276.62 3514.74,1279.46C3515.1,1279.95 3514.95,1281.21 3514.24,1281.59C3513.89,1281.78 3513.5,1281.87 3513.11,1281.87ZM3527.42,1281.87C3526.79,1281.87 3526.17,1281.63 3525.78,1281.21C3521.83,1276.83 3524.22,1274.15 3526.15,1272.01C3526.61,1271.49 3527.05,1270.99 3527.43,1270.47C3529.52,1267.56 3526.44,1265.25 3526.08,1265C3523.75,1263.35 3526.4,1261.1 3528.75,1262.73C3530.78,1264.13 3533.85,1267.86 3530.91,1271.95C3530.44,1272.61 3529.92,1273.18 3529.42,1273.74C3527.64,1275.73 3526.96,1276.62 3529.05,1279.46C3529.41,1279.95 3529.26,1281.21 3528.55,1281.59C3528.21,1281.78 3527.81,1281.87 3527.42,1281.87ZM3541.31,1237.11C3541.31,1233.2 3538.14,1230.03 3534.23,1230.03L3489.33,1230.03C3485.42,1230.03 3482.25,1233.2 3482.25,1237.11L3482.25,1251.28C3482.25,1255.19 3485.42,1258.37 3489.33,1258.37L3534.23,1258.37C3538.14,1258.37 3541.31,1255.19 3541.31,1251.28L3541.31,1237.11ZM3533.1,1247.85C3536.89,1247.85 3536.95,1253.62 3533.1,1253.61C3486.12,1253.53 3490.1,1253.61 3490.1,1253.61C3486.07,1253.61 3486.07,1247.85 3490.1,1247.85L3533.1,1247.85ZM3532.27,1240.14C3531.01,1241.18 3529.15,1241.01 3528.11,1239.75C3527.07,1238.5 3527.25,1236.63 3528.5,1235.6C3529.76,1234.56 3531.62,1234.73 3532.66,1235.99C3533.7,1237.24 3533.53,1239.11 3532.27,1240.14ZM3522.53,1240.14C3521.27,1241.18 3519.41,1241.01 3518.37,1239.75C3517.33,1238.5 3517.5,1236.63 3518.76,1235.6C3520.01,1234.56 3521.88,1234.73 3522.92,1235.99C3523.96,1237.24 3523.78,1239.11 3522.53,1240.14Z" style="fill:rgb(155,155,155);"/>
        </g>
    </g>
</svg>
