<?xml version="1.0" encoding="UTF-8" standalone="no"?>
<!DOCTYPE svg PUBLIC "-//W3C//DTD SVG 1.1//EN" "http://www.w3.org/Graphics/SVG/1.1/DTD/svg11.dtd">
<svg class="grid-icons" viewBox="0 0 23 20" version="1.1" xmlns="http://www.w3.org/2000/svg" xmlns:xlink="http://www.w3.org/1999/xlink" xml:space="preserve" xmlns:serif="http://www.serif.com/" style="fill-rule:evenodd;clip-rule:evenodd;stroke-linejoin:round;stroke-miterlimit:2;">
    <g transform="matrix(1,0,0,1,-450.929,-2081.46)">
        <g transform="matrix(0.254812,0,0,0.254812,-653.135,1918.45)">
            <path d="M4335.82,666.36C4334.12,665.949 4332.85,664.412 4332.85,662.581L4332.85,643.6C4332.85,641.455 4334.59,639.714 4336.73,639.714L4341.86,639.714C4343.33,639.714 4344.62,640.537 4345.28,641.749L4353.71,641.749C4354.77,641.749 4355.63,642.607 4355.63,643.663C4355.63,644.72 4354.77,645.577 4353.71,645.577L4345.74,645.577L4345.74,647.538L4353.71,647.538C4354.77,647.538 4355.63,648.396 4355.63,649.453C4355.63,650.509 4354.77,651.367 4353.71,651.367L4345.74,651.367L4345.74,653.534L4353.71,653.534C4354.77,653.534 4355.63,654.392 4355.63,655.449C4355.63,656.505 4354.77,657.363 4353.71,657.363L4345.74,657.363L4345.74,659.591L4353.71,659.591C4354.77,659.591 4355.63,660.449 4355.63,661.505C4355.63,662.562 4354.77,663.42 4353.71,663.42L4345.65,663.42C4345.41,664.545 4344.67,665.488 4343.68,666.015L4344.65,676.809C4344.67,676.996 4344.7,677.718 4344.71,677.907L4345.16,711.936C4345.18,713.242 4344.13,714.316 4342.83,714.334L4339.71,714.376C4338.4,714.393 4337.33,713.347 4337.31,712.041L4336.86,678.012C4336.85,677.928 4336.84,677.598 4336.83,677.513L4335.82,666.36ZM4388.17,709.817C4388.48,712.481 4387.5,714.286 4383.91,714.368L4361.28,714.368C4358.52,714.382 4357.11,713.083 4357.2,710.316L4363.69,662.588C4364.06,661.091 4365.13,660.519 4366.56,660.441L4379.33,660.441C4380.78,660.472 4381.62,661.16 4381.81,662.56L4388.17,709.817ZM4413.37,639.812C4413.59,639.774 4413.81,639.754 4414.04,639.754L4419.14,639.754C4421.28,639.754 4423.01,641.486 4423.01,643.62L4423.01,709.992C4423.01,712.126 4421.28,713.858 4419.14,713.858L4414.2,713.858C4414.14,713.864 4414.07,713.866 4414,713.866L4397.31,713.866C4395.93,713.866 4394.81,712.743 4394.81,711.359C4394.81,709.974 4395.93,708.851 4397.31,708.851L4410.18,708.851L4410.18,705.445L4397.31,705.445C4395.93,705.445 4394.81,704.322 4394.81,702.937C4394.81,701.553 4395.93,700.43 4397.31,700.43L4410.18,700.43L4410.18,696.835L4397.31,696.835C4395.93,696.835 4394.81,695.711 4394.81,694.327C4394.81,692.943 4395.93,691.819 4397.31,691.819L4410.18,691.819L4410.18,688.11L4397.31,688.11C4395.93,688.11 4394.81,686.986 4394.81,685.602C4394.81,684.218 4395.93,683.094 4397.31,683.094L4410.18,683.094L4410.18,679.499L4397.31,679.499C4395.93,679.499 4394.81,678.375 4394.81,676.991C4394.81,675.607 4395.93,674.483 4397.31,674.483L4410.18,674.483L4410.18,670.774L4397.31,670.774C4395.93,670.774 4394.81,669.65 4394.81,668.266C4394.81,666.882 4395.93,665.758 4397.31,665.758L4410.18,665.758L4410.18,662.163L4397.31,662.163C4395.93,662.163 4394.81,661.04 4394.81,659.656C4394.81,658.271 4395.93,657.148 4397.31,657.148L4410.18,657.148L4410.18,653.439L4397.31,653.439C4395.93,653.439 4394.81,652.315 4394.81,650.931C4394.81,649.547 4395.93,648.423 4397.31,648.423L4410.18,648.423L4410.18,644.828L4397.31,644.828C4395.93,644.828 4394.81,643.704 4394.81,642.32C4394.81,640.936 4395.93,639.812 4397.31,639.812L4413.37,639.812ZM4381.86,655.192C4382.09,656.861 4381.61,658.044 4379.42,658.081L4366.11,658.081C4364.28,658.06 4363.63,657.061 4363.86,655.327L4366.42,641.998C4366.78,640.94 4367.49,640.256 4368.82,640.243L4376.7,640.243C4378.22,640.216 4379.08,640.868 4379.35,642.116L4381.86,655.192Z" style="fill:rgb(155,155,155);"/>
        </g>
    </g>
</svg>
