<?xml version="1.0" encoding="UTF-8" standalone="no"?>
<!DOCTYPE svg PUBLIC "-//W3C//DTD SVG 1.1//EN" "http://www.w3.org/Graphics/SVG/1.1/DTD/svg11.dtd">
<svg class="my-image" width="100%" height="100%" viewBox="0 0 20 24" version="1.1" xmlns="http://www.w3.org/2000/svg" xmlns:xlink="http://www.w3.org/1999/xlink" xml:space="preserve" xmlns:serif="http://www.serif.com/" style="fill-rule:evenodd;clip-rule:evenodd;stroke-linejoin:round;stroke-miterlimit:2;">
    <g transform="matrix(1,0,0,1,-1296.9,-703.568)">
        <path d="M1298.81,724.793L1297.69,712.663C1297.44,710.653 1298.71,709.759 1300.21,709.766L1313.85,709.766C1315.6,709.755 1316.15,710.76 1316.04,712.254L1314.75,724.793C1314.75,726.087 1313.69,727.151 1312.39,727.151L1301.17,727.151C1299.88,727.151 1298.81,726.087 1298.81,724.793ZM1301.35,713.697L1301.99,723.221C1301.99,723.652 1302.34,724.007 1302.77,724.007C1303.2,724.007 1303.56,723.652 1303.56,723.221L1302.93,713.697C1302.93,713.266 1302.57,712.911 1302.14,712.911C1301.71,712.911 1301.35,713.266 1301.35,713.697ZM1310.79,713.697L1310.18,723.221C1310.18,723.652 1310.54,724.007 1310.97,724.007C1311.4,724.007 1311.76,723.652 1311.76,723.221L1312.36,713.697C1312.36,713.266 1312.01,712.911 1311.57,712.911C1311.14,712.911 1310.79,713.266 1310.79,713.697ZM1306.07,713.697L1306.07,723.221C1306.07,723.652 1306.43,724.007 1306.86,724.007C1307.29,724.007 1307.64,723.652 1307.64,723.221L1307.64,713.697C1307.64,713.266 1307.29,712.911 1306.86,712.911C1306.43,712.911 1306.07,713.266 1306.07,713.697ZM1304.7,705.35C1304.72,704.363 1305.53,703.568 1306.52,703.568C1307.51,703.568 1308.32,704.363 1308.35,705.35L1314.76,705.35C1315.63,705.35 1316.34,706.058 1316.34,706.929C1316.34,707.801 1315.63,708.509 1314.76,708.509L1298.48,708.509C1297.61,708.509 1296.9,707.801 1296.9,706.929C1296.9,706.058 1297.61,705.35 1298.48,705.35L1304.7,705.35Z" style="fill:rgb(247,67,36);"/>
    </g>
</svg>
