<?xml version="1.0" encoding="UTF-8" standalone="no"?>
<!DOCTYPE svg PUBLIC "-//W3C//DTD SVG 1.1//EN" "http://www.w3.org/Graphics/SVG/1.1/DTD/svg11.dtd">
<svg class="calendario-icon" viewBox="0 0 27 26" version="1.1" xmlns="http://www.w3.org/2000/svg" xmlns:xlink="http://www.w3.org/1999/xlink" xml:space="preserve" xmlns:serif="http://www.serif.com/" style="fill-rule:evenodd;clip-rule:evenodd;stroke-linejoin:round;stroke-miterlimit:2;">
    <g transform="matrix(1,0,0,1,-745.676,-2193.24)">
        <g transform="matrix(0.517085,0,0,0.517085,-425.573,1282.26)">
            <path d="M2307.44,1810.38C2262.75,1810.38 2271.62,1810.38 2271.62,1810.38C2269.92,1810.38 2265.1,1808.78 2265.1,1802.78L2265.1,1772.6C2265.1,1768.42 2267.9,1765.66 2271.09,1765.66L2272.55,1765.67C2274.92,1765.69 2275.53,1767.17 2276.19,1768.74C2277.23,1771.2 2279.04,1771.66 2280.74,1771.66C2282.45,1771.66 2284.29,1770.79 2285.17,1768.74C2285.82,1767.22 2286.71,1765.65 2288.82,1765.65L2292.12,1765.65C2294.49,1765.65 2295.45,1767.16 2296.1,1768.74C2297.1,1771.16 2299.3,1771.67 2301.01,1771.6C2302.71,1771.53 2304.3,1770.98 2305.34,1768.74C2306.06,1767.19 2306.95,1765.65 2309.21,1765.65L2310.75,1765.65C2315.84,1765.65 2315.99,1770.98 2315.99,1772.35L2315.99,1802.09C2315.99,1807.38 2312.73,1810.38 2307.44,1810.38ZM2276.03,1803.11C2277.74,1803.11 2279.12,1801.73 2279.12,1800.03C2279.12,1798.33 2277.74,1796.94 2276.03,1796.94C2274.33,1796.94 2272.95,1798.33 2272.95,1800.03C2272.95,1801.73 2274.33,1803.11 2276.03,1803.11ZM2285.29,1803.11C2286.99,1803.11 2288.37,1801.73 2288.37,1800.03C2288.37,1798.33 2286.99,1796.94 2285.29,1796.94C2283.58,1796.94 2282.2,1798.33 2282.2,1800.03C2282.2,1801.73 2283.58,1803.11 2285.29,1803.11ZM2294.55,1796.8C2292.84,1796.8 2291.46,1798.18 2291.46,1799.88C2291.46,1801.59 2292.84,1802.97 2294.55,1802.97C2296.25,1802.97 2297.64,1801.59 2297.64,1799.88C2297.64,1798.18 2296.25,1796.8 2294.55,1796.8ZM2276.03,1793.86C2277.74,1793.86 2279.12,1792.48 2279.12,1790.78C2279.12,1789.07 2277.74,1787.69 2276.03,1787.69C2274.33,1787.69 2272.95,1789.07 2272.95,1790.78C2272.95,1792.48 2274.33,1793.86 2276.03,1793.86ZM2285.29,1793.86C2286.99,1793.86 2288.37,1792.48 2288.37,1790.78C2288.37,1789.07 2286.99,1787.69 2285.29,1787.69C2283.58,1787.69 2282.2,1789.07 2282.2,1790.78C2282.2,1792.48 2283.58,1793.86 2285.29,1793.86ZM2304.18,1787.68C2302.47,1787.68 2301.09,1789.07 2301.09,1790.77C2301.09,1792.48 2302.47,1793.86 2304.18,1793.86C2305.88,1793.86 2307.26,1792.48 2307.26,1790.77C2307.26,1789.07 2305.88,1787.68 2304.18,1787.68ZM2294.55,1787.68C2292.84,1787.68 2291.46,1789.07 2291.46,1790.77C2291.46,1792.48 2292.84,1793.86 2294.55,1793.86C2296.25,1793.86 2297.64,1792.48 2297.64,1790.77C2297.64,1789.07 2296.25,1787.68 2294.55,1787.68ZM2304.18,1778.53C2302.47,1778.53 2301.09,1779.91 2301.09,1781.62C2301.09,1783.33 2302.47,1784.71 2304.18,1784.71C2305.88,1784.71 2307.26,1783.33 2307.26,1781.62C2307.26,1779.91 2305.88,1778.53 2304.18,1778.53ZM2285.29,1784.61C2286.99,1784.61 2288.37,1783.22 2288.37,1781.52C2288.37,1779.82 2286.99,1778.44 2285.29,1778.44C2283.58,1778.44 2282.2,1779.82 2282.2,1781.52C2282.2,1783.22 2283.58,1784.61 2285.29,1784.61ZM2294.96,1784.61C2296.66,1784.61 2298.04,1783.22 2298.04,1781.52C2298.04,1779.82 2296.66,1778.44 2294.96,1778.44C2293.25,1778.44 2291.87,1779.82 2291.87,1781.52C2291.87,1783.22 2293.25,1784.61 2294.96,1784.61ZM2283.02,1764.12C2283.02,1762.82 2281.96,1761.76 2280.65,1761.76C2279.35,1761.76 2278.29,1762.82 2278.29,1764.12L2278.29,1767.09C2278.29,1768.39 2279.35,1769.45 2280.65,1769.45C2281.96,1769.45 2283.02,1768.39 2283.02,1767.09L2283.02,1764.12ZM2303.26,1764.12C2303.26,1762.82 2302.2,1761.76 2300.89,1761.76C2299.59,1761.76 2298.53,1762.82 2298.53,1764.12L2298.53,1767.09C2298.53,1768.39 2299.59,1769.45 2300.89,1769.45C2302.2,1769.45 2303.26,1768.39 2303.26,1767.09L2303.26,1764.12Z" />
        </g>
    </g>
</svg>
