<?xml version="1.0" encoding="UTF-8" standalone="no"?>
<!DOCTYPE svg PUBLIC "-//W3C//DTD SVG 1.1//EN" "http://www.w3.org/Graphics/SVG/1.1/DTD/svg11.dtd">
<svg width="100%" height="100%" viewBox="0 0 27 20" version="1.1" xmlns="http://www.w3.org/2000/svg" xmlns:xlink="http://www.w3.org/1999/xlink" xml:space="preserve" xmlns:serif="http://www.serif.com/" style="fill-rule:evenodd;clip-rule:evenodd;stroke-linejoin:round;stroke-miterlimit:2;">
    <g transform="matrix(1,0,0,1,-89.6398,-867.306)">
        <g transform="matrix(0.540872,0,0,0.540872,-1178.93,349.235)">
            <path d="M2345.52,990.738C2345.58,994.847 2352.4,995.038 2352.47,990.709L2352.51,986.68L2387.56,986.835L2387.68,990.649C2387.64,994.59 2394.15,994.861 2394.2,990.661L2394.07,975.084C2394.35,971.157 2387.42,971.177 2387.46,975.091L2387.42,979.025L2352.47,979.099L2352.21,960.833C2352.24,956.749 2345.48,956.935 2345.43,960.884L2345.52,990.738ZM2360.33,965.818C2363.35,965.818 2365.8,968.273 2365.8,971.296C2365.8,974.32 2363.35,976.774 2360.33,976.774C2357.3,976.774 2354.85,974.32 2354.85,971.296C2354.85,968.273 2357.3,965.818 2360.33,965.818ZM2368.25,976.586L2384.05,976.455C2384.05,976.455 2384.16,975.067 2384.15,973.441C2384.14,970.771 2382.53,967.247 2378.62,967.173C2370.55,967.019 2368.29,967.037 2368.29,967.037L2368.25,976.586Z" style="fill:rgb(212,212,212);"/>
        </g>
    </g>
</svg>
