<?xml version="1.0" encoding="UTF-8" standalone="no"?>
<!DOCTYPE svg PUBLIC "-//W3C//DTD SVG 1.1//EN" "http://www.w3.org/Graphics/SVG/1.1/DTD/svg11.dtd">
<svg class="carrito-icon" viewBox="0 0 31 41" version="1.1" xmlns="http://www.w3.org/2000/svg" xmlns:xlink="http://www.w3.org/1999/xlink" xml:space="preserve" xmlns:serif="http://www.serif.com/" style="fill-rule:evenodd;clip-rule:evenodd;stroke-linejoin:round;stroke-miterlimit:2;">
    <g transform="matrix(1,0,0,1,-582.145,-1187.18)">
        <path d="M593.703,1222.67C595.037,1222.67 596.12,1223.75 596.12,1225.09C596.12,1226.42 595.037,1227.5 593.703,1227.5C592.368,1227.5 591.286,1226.42 591.286,1225.09C591.286,1223.75 592.368,1222.67 593.703,1222.67ZM605.892,1222.67C607.226,1222.67 608.308,1223.75 608.308,1225.09C608.308,1226.42 607.226,1227.5 605.892,1227.5C604.557,1227.5 603.475,1226.42 603.475,1225.09C603.475,1223.75 604.557,1222.67 605.892,1222.67ZM611.333,1202.08C612.418,1202.08 613.219,1203.1 612.97,1204.15L610.399,1215.08C610.22,1215.84 609.543,1216.37 608.763,1216.37L593.495,1216.37C593.485,1216.4 593.486,1216.42 593.476,1216.45L592.584,1218.5L608.834,1218.5C609.646,1218.5 610.305,1219.16 610.305,1219.97C610.305,1220.78 609.646,1221.44 608.834,1221.44L590.341,1221.44C589.845,1221.44 589.382,1221.19 589.11,1220.78C588.838,1220.36 588.794,1219.84 588.992,1219.38L590.575,1215.74L586.596,1200.43L583.616,1200.43C582.803,1200.43 582.145,1199.77 582.145,1198.95C582.145,1198.14 582.803,1197.48 583.616,1197.48L587.089,1197.48C588.198,1197.48 589.156,1198.29 589.362,1199.37L590.067,1202.08L611.333,1202.08ZM607.141,1211.39L607.141,1207.07C607.141,1206.49 606.672,1206.02 606.091,1206.02C605.511,1206.02 605.04,1206.49 605.04,1207.07L605.04,1211.39C605.04,1211.97 605.511,1212.44 606.091,1212.44C606.672,1212.44 607.141,1211.97 607.141,1211.39ZM602.098,1211.39L602.098,1207.07C602.098,1206.49 601.628,1206.02 601.047,1206.02C600.467,1206.02 599.997,1206.49 599.997,1207.07L599.997,1211.39C599.997,1211.97 600.467,1212.44 601.047,1212.44C601.628,1212.44 602.098,1211.97 602.098,1211.39ZM597.055,1211.39L597.055,1207.07C597.055,1206.49 596.585,1206.02 596.004,1206.02C595.424,1206.02 594.953,1206.49 594.953,1207.07L594.953,1211.39C594.953,1211.97 595.424,1212.44 596.004,1212.44C596.585,1212.44 597.055,1211.97 597.055,1211.39ZM593.401,1187.18L596.863,1187.18C597.588,1187.18 598.294,1187.33 598.959,1187.61C599.601,1187.88 600.175,1188.27 600.669,1188.77C601.163,1189.26 601.553,1189.83 601.824,1190.48C602.108,1191.14 602.251,1191.85 602.251,1192.57L602.251,1194.18L603.166,1193.27C603.759,1192.68 604.72,1192.68 605.313,1193.27C605.905,1193.86 605.905,1194.82 605.313,1195.42L601.82,1198.91C601.228,1199.5 600.267,1199.5 599.674,1198.91L596.175,1195.41C595.878,1195.12 595.73,1194.73 595.73,1194.34C595.73,1193.95 595.88,1193.57 596.175,1193.27C596.768,1192.68 597.729,1192.68 598.322,1193.27L599.214,1194.16L599.214,1192.57C599.214,1191.95 598.97,1191.36 598.522,1190.91C598.075,1190.46 597.487,1190.22 596.861,1190.22L593.399,1190.22C591.393,1190.22 591.395,1187.18 593.401,1187.18Z" />
    </g>
</svg>
