<?xml version="1.0" encoding="UTF-8" standalone="no"?>
<!DOCTYPE svg PUBLIC "-//W3C//DTD SVG 1.1//EN" "http://www.w3.org/Graphics/SVG/1.1/DTD/svg11.dtd">
<svg width="100%" height="100%" viewBox="0 0 24 20" version="1.1" xmlns="http://www.w3.org/2000/svg" xmlns:xlink="http://www.w3.org/1999/xlink" xml:space="preserve" xmlns:serif="http://www.serif.com/" style="fill-rule:evenodd;clip-rule:evenodd;stroke-linejoin:round;stroke-miterlimit:2;">
    <g transform="matrix(1,0,0,1,-92.746,-918.543)">
        <g transform="matrix(0.424382,0,0,0.424382,-1102.95,-284.649)">
            <path d="M2819.51,2878.1C2821.02,2879.71 2822.85,2880.52 2824.99,2880.52L2863.74,2880.52C2865.88,2880.52 2867.71,2879.71 2869.22,2878.1C2869.98,2877.29 2870.55,2876.39 2870.93,2875.41C2871.09,2874.99 2871.05,2873.7 2870.58,2873.1C2869.97,2872.32 2868.86,2872.27 2868.86,2872.27L2819.76,2872.27C2819.76,2872.27 2818.78,2872.09 2818.05,2872.85C2817.56,2873.36 2817.45,2874.28 2817.54,2874.62C2817.89,2875.91 2818.55,2877.08 2819.51,2878.1ZM2831.77,2868.15L2853.08,2868.15C2854.94,2868.15 2856.53,2867.44 2857.87,2866.02C2859.2,2864.6 2859.87,2862.91 2859.87,2860.93L2859.87,2859.9L2861.8,2859.9C2865.01,2859.9 2867.75,2858.69 2870.02,2856.28C2872.29,2853.86 2873.43,2850.95 2873.43,2847.53C2873.43,2844.12 2872.29,2841.2 2870.02,2838.79C2867.75,2836.37 2865.01,2835.16 2861.8,2835.16L2829.25,2835.16C2827.04,2835.11 2825.1,2836.39 2824.99,2839.09L2824.99,2860.93C2824.99,2862.91 2825.66,2864.6 2826.99,2866.02C2828.32,2867.44 2829.91,2868.15 2831.77,2868.15ZM2859.87,2841.35L2861.8,2841.35C2863.42,2841.35 2864.79,2841.95 2865.92,2843.15C2867.05,2844.35 2867.62,2845.81 2867.62,2847.53C2867.62,2849.25 2867.05,2850.71 2865.92,2851.91C2864.79,2853.12 2863.42,2853.72 2861.8,2853.72L2859.87,2853.72L2859.87,2841.35Z" style="fill:rgb(212,212,212);"/>
        </g>
    </g>
</svg>
