<?xml version="1.0" encoding="UTF-8" standalone="no"?>
<!DOCTYPE svg PUBLIC "-//W3C//DTD SVG 1.1//EN" "http://www.w3.org/Graphics/SVG/1.1/DTD/svg11.dtd">
<svg class="grid-icons" viewBox="0 0 25 19" version="1.1" xmlns="http://www.w3.org/2000/svg" xmlns:xlink="http://www.w3.org/1999/xlink" xml:space="preserve" xmlns:serif="http://www.serif.com/" style="fill-rule:evenodd;clip-rule:evenodd;stroke-linejoin:round;stroke-miterlimit:2;">
    <g transform="matrix(1,0,0,1,-197.852,-2160.62)">
        <g transform="matrix(0.31447,0,0,0.31447,-1321.24,1888.65)">
            <path d="M4838.45,881.874L4832.72,881.874C4831.57,881.874 4830.64,880.938 4830.64,879.786L4830.64,876.174C4830.64,875.021 4831.57,874.086 4832.72,874.086L4880.06,874.086C4881.22,874.086 4882.15,875.021 4882.15,876.174L4882.15,879.786C4882.15,880.938 4881.22,881.874 4880.06,881.874L4864.46,881.874L4864.46,921.093C4864.41,922.689 4863.29,924.341 4861.28,924.415L4841.2,924.415C4839.51,924.262 4838.5,923.377 4838.45,921.473L4838.45,881.874ZM4876.85,905.13L4874.63,905.16C4869.25,905.041 4869.66,898.077 4874.63,898.041L4874.63,898.041C4874.63,898.041 4886.1,898.067 4886.25,898.067C4896.76,898.067 4898.6,890.372 4898.79,884.115L4899.88,868.611C4899.84,863.665 4907.4,863.563 4907.16,868.641L4905.97,884.13C4905.32,891.036 4904.02,898.673 4897.49,902.51C4897.53,902.609 4897.56,902.71 4897.58,902.813L4901.45,921.603C4901.86,923.217 4901.49,924.167 4900.28,924.395L4897.09,924.395C4895.52,924.348 4894.86,923.416 4894.64,922.048L4891.06,904.684C4889.71,904.89 4888.25,904.999 4886.64,904.999L4883.74,905.038L4880.69,922.536C4880.44,923.7 4879.79,924.422 4878.45,924.395L4875.11,924.395C4873.98,924.357 4873.68,923.529 4873.88,922.228L4876.85,905.13Z" style="fill:rgb(155,155,155);fill-rule:nonzero;"/>
        </g>
    </g>
</svg>
