<?xml version="1.0" encoding="UTF-8" standalone="no"?>
<!DOCTYPE svg PUBLIC "-//W3C//DTD SVG 1.1//EN" "http://www.w3.org/Graphics/SVG/1.1/DTD/svg11.dtd">
<svg class="grid-icons" viewBox="0 0 19 21" version="1.1" xmlns="http://www.w3.org/2000/svg" xmlns:xlink="http://www.w3.org/1999/xlink" xml:space="preserve" xmlns:serif="http://www.serif.com/" style="fill-rule:evenodd;clip-rule:evenodd;stroke-linejoin:round;stroke-miterlimit:2;">
    <g transform="matrix(1,0,0,1,-324.629,-2158.87)">
        <g transform="matrix(0.329205,0,0,0.308948,-1139.76,1924.23)">
            <path d="M4499.26,822.354C4499.26,820.528 4497.77,819.046 4495.95,819.046L4452.68,819.046C4450.86,819.046 4449.37,820.528 4449.37,822.354C4449.37,824.179 4450.86,825.661 4452.68,825.661L4495.95,825.661C4497.77,825.661 4499.26,824.179 4499.26,822.354ZM4494.95,809.238C4494.86,811.587 4494.75,811.4 4494.46,813.77C4494.34,814.768 4494.05,815.561 4493.61,816.061C4493.16,816.561 4491.8,816.768 4491.8,816.768L4457.22,816.768C4457.22,816.768 4455.92,816.607 4455.52,816.235C4455.11,815.863 4454.89,815.28 4454.79,814.537C4453.23,803.164 4454.13,794.516 4457.47,783.481L4448.78,776.752C4447.47,774.823 4448.98,773.832 4450.08,773.762L4461.15,773.498C4461.87,771.842 4462.64,770.192 4463.46,768.545L4485.53,768.545C4486.47,770.322 4487.34,772.105 4488.14,773.898C4498.3,774.492 4506.1,783.185 4505.59,793.369C4505.24,800.362 4501.02,806.382 4494.95,809.238ZM4480.05,783.044C4479.74,780.378 4477.48,778.304 4474.73,778.304C4471.78,778.304 4469.38,780.703 4469.38,783.657L4469.38,804.009C4469.38,806.963 4471.78,809.362 4474.73,809.362C4477.68,809.362 4480.08,806.963 4480.08,804.009L4480.08,803.744L4477.41,803.744C4477,803.744 4476.67,803.412 4476.67,803.002C4476.67,802.593 4477,802.26 4477.41,802.26L4480.08,802.26L4480.08,800.456L4477.41,800.456C4477,800.456 4476.67,800.124 4476.67,799.715C4476.67,799.305 4477,798.973 4477.41,798.973L4480.08,798.973L4480.08,797.001L4476.65,797.001C4475.92,797.001 4475.34,796.412 4475.34,795.687C4475.34,794.962 4475.92,794.374 4476.65,794.374L4480.08,794.374L4480.08,792.297L4477.41,792.297C4477,792.297 4476.67,791.965 4476.67,791.555C4476.67,791.146 4477,790.813 4477.41,790.813L4480.08,790.813L4480.08,788.988L4477.41,788.988C4477,788.988 4476.67,788.656 4476.67,788.246C4476.67,787.836 4477,787.504 4477.41,787.504L4480.08,787.504L4480.08,785.671L4476.59,785.671C4475.87,785.671 4475.28,785.082 4475.28,784.357C4475.28,783.633 4475.87,783.044 4476.59,783.044L4480.05,783.044ZM4490.15,778.857C4493.18,787.059 4494.76,795.402 4494.99,803.875C4498.44,801.476 4500.73,797.566 4500.95,793.136C4501.3,786.283 4496.62,780.33 4490.15,778.857ZM4483.61,766.363C4482.54,762.292 4478.86,759.453 4474.65,759.453C4470.45,759.453 4466.77,762.292 4465.7,766.363L4483.61,766.363Z" style="fill:rgb(155,155,155);"/>
        </g>
    </g>
</svg>
