<?xml version="1.0" encoding="UTF-8" standalone="no"?>
<!DOCTYPE svg PUBLIC "-//W3C//DTD SVG 1.1//EN" "http://www.w3.org/Graphics/SVG/1.1/DTD/svg11.dtd">
<svg class="main-icon info-icon"  viewBox="0 0 17 17" version="1.1" xmlns="http://www.w3.org/2000/svg" xmlns:xlink="http://www.w3.org/1999/xlink" xml:space="preserve" xmlns:serif="http://www.serif.com/" style="fill-rule:evenodd;clip-rule:evenodd;stroke-linejoin:round;stroke-miterlimit:2;">
    <g transform="matrix(1,0,0,1,-486.707,-868.67)">
        <g transform="matrix(0.405355,0,0,-0.405355,-1030.83,1363.07)">
            <path d="M3763.56,1179.99C3774.51,1179.99 3783.39,1188.88 3783.39,1199.83C3783.39,1210.78 3774.51,1219.66 3763.56,1219.66C3752.61,1219.66 3743.72,1210.78 3743.72,1199.83C3743.72,1188.88 3752.61,1179.99 3763.56,1179.99ZM3763.78,1213.19C3761.93,1213.19 3760.43,1211.7 3760.43,1209.85C3760.43,1208 3761.93,1206.5 3763.78,1206.5C3765.63,1206.5 3767.13,1208 3767.13,1209.85C3767.13,1211.7 3765.63,1213.19 3763.78,1213.19ZM3767.14,1200.66C3767.14,1202.52 3765.64,1204.03 3763.78,1204.03C3761.92,1204.03 3760.42,1202.52 3760.42,1200.66L3760.42,1190.33C3760.42,1188.48 3761.92,1186.97 3763.78,1186.97C3765.64,1186.97 3767.14,1188.48 3767.14,1190.33L3767.14,1200.66Z" />
        </g>
    </g>
</svg>
