<?xml version="1.0" encoding="UTF-8" standalone="no"?>
<!DOCTYPE svg PUBLIC "-//W3C//DTD SVG 1.1//EN" "http://www.w3.org/Graphics/SVG/1.1/DTD/svg11.dtd">
<svg class="grid-icons" viewBox="0 0 25 22" version="1.1" xmlns="http://www.w3.org/2000/svg" xmlns:xlink="http://www.w3.org/1999/xlink" xml:space="preserve" xmlns:serif="http://www.serif.com/" style="fill-rule:evenodd;clip-rule:evenodd;stroke-linejoin:round;stroke-miterlimit:2;">
    <g transform="matrix(1,0,0,1,-196.613,-2113.7)">
        <g transform="matrix(0.188072,0,0,0.188072,-705.729,2048.56)">
            <path d="M4814.71,397.248L4822.63,380.588C4825.05,377.036 4826.55,373.207 4835.28,372.7C4839.95,372.429 4844.82,372.328 4849.47,372.657C4854.52,373.014 4859.57,375.509 4862.13,379.928L4871.28,397.248L4912.54,397.248C4919.94,397.248 4925.96,403.257 4925.96,410.659L4925.96,448.398C4925.96,455.799 4919.94,461.809 4912.54,461.809L4811.28,461.809C4803.88,461.809 4797.86,455.799 4797.86,448.398L4797.86,410.659C4797.86,403.257 4803.88,397.248 4811.28,397.248L4814.71,397.248ZM4831.44,413.898C4831.44,411.308 4829.33,409.208 4826.74,409.208C4824.16,409.208 4822.07,411.308 4822.07,413.898L4822.07,446.542C4822.07,449.129 4824.16,451.232 4826.74,451.232C4829.33,451.232 4831.44,449.129 4831.44,446.542L4831.44,413.898ZM4878.35,413.898C4878.35,411.308 4876.26,409.208 4873.65,409.208C4871.07,409.208 4868.98,411.308 4868.98,413.898L4868.98,446.542C4868.98,449.129 4871.07,451.232 4873.65,451.232C4876.26,451.232 4878.35,449.129 4878.35,446.542L4878.35,413.898ZM4854.65,413.898C4854.65,411.308 4852.56,409.208 4849.98,409.208C4847.39,409.208 4845.28,411.308 4845.28,413.898L4845.28,446.542C4845.28,449.129 4847.39,451.232 4849.98,451.232C4852.56,451.232 4854.65,449.129 4854.65,446.542L4854.65,413.898ZM4903.55,413.898C4903.55,411.308 4901.44,409.208 4898.85,409.208C4896.27,409.208 4894.15,411.308 4894.15,413.898L4894.15,446.542C4894.15,449.129 4896.27,451.232 4898.85,451.232C4901.44,451.232 4903.55,449.129 4903.55,446.542L4903.55,413.898ZM4825.96,397.248L4829.59,397.248L4830.6,386.882L4825.96,397.248ZM4855.61,397.248L4860.68,397.248L4855.01,386.78L4855.61,397.248ZM4904.7,359.733C4905.49,359.776 4906.25,360.156 4906.7,360.808C4911.4,367.519 4908.25,371.288 4905.72,374.311C4905.1,375.046 4904.53,375.74 4904.03,376.481C4901.24,380.62 4904.96,384.223 4905.4,384.621C4908.2,387.203 4904.77,390.323 4901.93,387.778C4899.47,385.575 4895.85,379.881 4899.76,374.072C4900.38,373.139 4901.06,372.324 4901.72,371.538C4904.06,368.742 4904.96,367.472 4902.52,363.158C4902.1,362.412 4902.36,360.574 4903.27,360.06C4903.71,359.809 4904.21,359.707 4904.7,359.733ZM4889.5,359.14C4890.29,359.182 4891.05,359.562 4891.51,360.215C4896.2,366.926 4893.05,370.694 4890.52,373.718C4889.91,374.453 4889.33,375.146 4888.83,375.888C4886.05,380.026 4889.76,383.629 4890.2,384.028C4893.01,386.609 4889.57,389.73 4886.73,387.184C4884.27,384.981 4880.65,379.287 4884.56,373.478C4885.19,372.545 4885.87,371.731 4886.53,370.944C4888.86,368.148 4889.77,366.878 4887.32,362.564C4886.9,361.818 4887.16,359.981 4888.07,359.466C4888.51,359.215 4889.01,359.113 4889.5,359.14ZM4842.96,346.362C4849.67,346.362 4855.12,351.809 4855.12,358.518C4855.12,365.227 4849.67,370.674 4842.96,370.674C4836.25,370.674 4830.81,365.227 4830.81,358.518C4830.81,351.809 4836.25,346.362 4842.96,346.362Z" style="fill:rgb(155,155,155);"/>
        </g>
    </g>
</svg>
