<?xml version="1.0" encoding="UTF-8" standalone="no"?>
<!DOCTYPE svg PUBLIC "-//W3C//DTD SVG 1.1//EN" "http://www.w3.org/Graphics/SVG/1.1/DTD/svg11.dtd">
<svg width="100%" height="100%" viewBox="0 0 70 90" version="1.1" xmlns="http://www.w3.org/2000/svg" xmlns:xlink="http://www.w3.org/1999/xlink" xml:space="preserve" xmlns:serif="http://www.serif.com/" style="fill-rule:evenodd;clip-rule:evenodd;stroke-linejoin:round;stroke-miterlimit:2;">
    <g transform="matrix(1,0,0,1,-537.233,-919.828)">
        <g transform="matrix(4.16667,0,0,4.16667,0,0)">
            <g transform="matrix(0.295074,0,0,0.295074,28.0955,29.5688)">
                <path d="M365.682,691.061L365.665,677.891C365.431,673.034 360.818,668.535 356.162,668.535L351.25,668.535C346.594,668.535 342.025,673.389 341.747,677.891L341.886,690.986C341.756,692.817 341.93,693.555 342.657,694.613L344.9,698.584C345.381,699.283 345.668,700.095 345.738,700.938L347.207,715.897C347.411,718.408 349.508,720.341 352.026,720.341L355.386,720.341C357.907,720.341 360.001,718.408 360.204,715.897L361.676,700.938C361.744,700.095 362.031,699.283 362.512,698.584L364.911,694.688C365.638,693.629 365.799,692.741 365.682,691.061ZM353.372,647.939C358.54,647.939 362.736,652.135 362.736,657.303C362.736,662.472 358.54,666.668 353.372,666.668C348.203,666.668 344.007,662.472 344.007,657.303C344.007,652.135 348.203,647.939 353.372,647.939Z" style="fill:rgb(63,63,63);fill-rule:nonzero;"/>
            </g>
        </g>
        <g transform="matrix(4.16667,0,0,4.16667,0,0)">
            <g transform="matrix(0.24,0,0,0.24,0,0)">
                <path d="M562.526,920.111C563.345,919.926 564.197,919.828 565.072,919.828C571.426,919.828 576.585,924.987 576.585,931.341C576.585,937.696 571.426,942.855 565.072,942.855C564.197,942.855 563.345,942.757 562.526,942.572C565.44,939.717 567.249,935.739 567.249,931.341C567.249,926.944 565.44,922.965 562.526,920.111ZM565.111,945.15L568.502,945.15C574.227,945.15 579.898,950.682 580.187,956.653L580.206,972.845C580.351,974.911 580.153,976.003 579.258,977.304L576.31,982.095C575.719,982.953 575.365,983.952 575.282,984.989L573.472,1003.38C573.223,1006.47 570.647,1008.84 567.549,1008.84L563.417,1008.84C563.039,1008.84 562.669,1008.81 562.31,1008.74C563.316,1007.31 563.964,1005.61 564.12,1003.75C564.119,1003.76 565.925,985.401 565.925,985.401C565.928,985.376 565.93,985.351 565.932,985.326C565.956,985.024 566.059,984.733 566.231,984.482C566.272,984.423 566.311,984.363 566.349,984.301L569.246,979.594C570.612,977.577 571.075,975.879 570.87,972.701L570.87,972.688L570.85,956.648C570.85,956.582 570.849,956.516 570.845,956.45C570.638,952.161 568.361,948.057 565.111,945.15Z" style="fill:rgb(63,63,63);fill-rule:nonzero;"/>
            </g>
        </g>
        <g transform="matrix(4.16667,0,0,4.16667,0,0)">
            <g transform="matrix(0.24,0,0,0.24,3.18804,0)">
                <path d="M562.526,920.111C563.345,919.926 564.197,919.828 565.072,919.828C571.426,919.828 576.585,924.987 576.585,931.341C576.585,937.696 571.426,942.855 565.072,942.855C564.197,942.855 563.345,942.757 562.526,942.572C565.44,939.717 567.249,935.739 567.249,931.341C567.249,926.944 565.44,922.965 562.526,920.111ZM565.111,945.15L568.502,945.15C574.227,945.15 579.898,950.682 580.187,956.653L580.206,972.845C580.351,974.911 580.153,976.003 579.258,977.304L576.31,982.095C575.719,982.953 575.365,983.952 575.282,984.989L573.472,1003.38C573.223,1006.47 570.647,1008.84 567.549,1008.84L563.417,1008.84C563.039,1008.84 562.669,1008.81 562.31,1008.74C563.316,1007.31 563.964,1005.61 564.12,1003.75C564.119,1003.76 565.925,985.401 565.925,985.401C565.928,985.376 565.93,985.351 565.932,985.326C565.956,985.024 566.059,984.733 566.231,984.482C566.272,984.423 566.311,984.363 566.349,984.301L569.246,979.594C570.612,977.577 571.075,975.879 570.87,972.701L570.87,972.688L570.85,956.648C570.85,956.582 570.849,956.516 570.845,956.45C570.638,952.161 568.361,948.057 565.111,945.15Z" style="fill:rgb(63,63,63);fill-rule:nonzero;"/>
            </g>
        </g>
        <g transform="matrix(4.16667,0,0,4.16667,0,0)">
            <g transform="matrix(0.24,0,0,0.24,6.37218,0)">
                <path d="M562.526,920.111C563.345,919.926 564.197,919.828 565.072,919.828C571.426,919.828 576.585,924.987 576.585,931.341C576.585,937.696 571.426,942.855 565.072,942.855C564.197,942.855 563.345,942.757 562.526,942.572C565.44,939.717 567.249,935.739 567.249,931.341C567.249,926.944 565.44,922.965 562.526,920.111ZM565.111,945.15L568.502,945.15C574.227,945.15 579.898,950.682 580.187,956.653L580.206,972.845C580.351,974.911 580.153,976.003 579.258,977.304L576.31,982.095C575.719,982.953 575.365,983.952 575.282,984.989L573.472,1003.38C573.223,1006.47 570.647,1008.84 567.549,1008.84L563.417,1008.84C563.039,1008.84 562.669,1008.81 562.31,1008.74C563.316,1007.31 563.964,1005.61 564.12,1003.75C564.119,1003.76 565.925,985.401 565.925,985.401C565.928,985.376 565.93,985.351 565.932,985.326C565.956,985.024 566.059,984.733 566.231,984.482C566.272,984.423 566.311,984.363 566.349,984.301L569.246,979.594C570.612,977.577 571.075,975.879 570.87,972.701L570.87,972.688L570.85,956.648C570.85,956.582 570.849,956.516 570.845,956.45C570.638,952.161 568.361,948.057 565.111,945.15Z" style="fill:rgb(63,63,63);fill-rule:nonzero;"/>
            </g>
        </g>
    </g>
</svg>
