<?xml version="1.0" encoding="UTF-8" standalone="no"?>
<!DOCTYPE svg PUBLIC "-//W3C//DTD SVG 1.1//EN" "http://www.w3.org/Graphics/SVG/1.1/DTD/svg11.dtd">
<svg class="mas-icon" viewBox="0 0 28 26" version="1.1" xmlns="http://www.w3.org/2000/svg" xmlns:xlink="http://www.w3.org/1999/xlink" xml:space="preserve" xmlns:serif="http://www.serif.com/" style="fill-rule:evenodd;clip-rule:evenodd;stroke-linejoin:round;stroke-miterlimit:2;">
    <g transform="matrix(1,0,0,1,-819.069,-935.647)">
        <g transform="matrix(1,0,0,1,0.426389,43.1163)">
            <g transform="matrix(0.815258,0,0,0.815258,-2062.77,-1044.61)">
                <path d="M3567.53,2383.92C3567.53,2379.61 3564.02,2376.1 3559.71,2376.1L3542.18,2376.1C3537.86,2376.1 3534.36,2379.61 3534.36,2383.92L3534.36,2399.56C3534.36,2403.88 3537.86,2407.38 3542.18,2407.38L3559.71,2407.38C3564.02,2407.38 3567.53,2403.88 3567.53,2399.56L3567.53,2383.92ZM3548.21,2384.13C3548.23,2382.55 3549.55,2381.29 3551.18,2381.29C3552.81,2381.29 3554.13,2382.55 3554.14,2384.13L3554.19,2389.03L3559.26,2389.08C3560.88,2389.1 3562.19,2390.38 3562.19,2391.95C3562.19,2393.52 3560.88,2394.8 3559.26,2394.82L3554.19,2394.87L3554.14,2399.77C3554.13,2401.34 3552.81,2402.61 3551.18,2402.61C3549.55,2402.61 3548.23,2401.34 3548.21,2399.77L3548.16,2394.87L3543.1,2394.82C3541.47,2394.8 3540.16,2393.52 3540.16,2391.95C3540.16,2390.38 3541.47,2389.1 3543.1,2389.08L3548.16,2389.03L3548.21,2384.13Z" />
            </g>
        </g>
    </g>
</svg>
