<?xml version="1.0" encoding="UTF-8" standalone="no"?>
<!DOCTYPE svg PUBLIC "-//W3C//DTD SVG 1.1//EN" "http://www.w3.org/Graphics/SVG/1.1/DTD/svg11.dtd">
<svg class="menos-icon" viewBox="0 0 28 26" version="1.1" xmlns="http://www.w3.org/2000/svg" xmlns:xlink="http://www.w3.org/1999/xlink" xml:space="preserve" xmlns:serif="http://www.serif.com/" style="fill-rule:evenodd;clip-rule:evenodd;stroke-linejoin:round;stroke-miterlimit:2;">
    <g transform="matrix(1,0,0,1,-755.96,-935.647)">
        <g transform="matrix(1,0,0,1,0.426389,43.1163)">
            <g transform="matrix(0.815258,0,0,0.815258,-2062.77,-1044.61)">
                <path d="M3490.12,2383.92C3490.12,2379.61 3486.61,2376.1 3482.3,2376.1L3464.77,2376.1C3460.45,2376.1 3456.95,2379.61 3456.95,2383.92L3456.95,2399.56C3456.95,2403.88 3460.45,2407.38 3464.77,2407.38L3482.3,2407.38C3486.61,2407.38 3490.12,2403.88 3490.12,2399.56L3490.12,2383.92ZM3465.49,2389.08L3481.64,2389.08C3483.27,2389.1 3484.58,2390.38 3484.58,2391.95C3484.58,2393.52 3483.27,2394.8 3481.64,2394.82L3465.49,2394.82C3463.86,2394.8 3462.55,2393.52 3462.55,2391.95C3462.55,2390.38 3463.86,2389.1 3465.49,2389.08Z" />
            </g>
        </g>
    </g>
</svg>
