<?xml version="1.0" encoding="UTF-8" standalone="no"?>
<!DOCTYPE svg PUBLIC "-//W3C//DTD SVG 1.1//EN" "http://www.w3.org/Graphics/SVG/1.1/DTD/svg11.dtd">
<svg class="grid-icons" viewBox="0 0 22 20" version="1.1" xmlns="http://www.w3.org/2000/svg" xmlns:xlink="http://www.w3.org/1999/xlink" xml:space="preserve" xmlns:serif="http://www.serif.com/" style="fill-rule:evenodd;clip-rule:evenodd;stroke-linejoin:round;stroke-miterlimit:2;">
    <g transform="matrix(1,0,0,1,-455.078,-2159.42)">
        <g transform="matrix(0.206105,0,0,0.206105,-485.344,2001.54)">
            <path d="M4662.2,808.501L4662.2,854.605C4662.2,857.721 4659.67,860.251 4656.55,860.251L4649.01,860.251C4646.98,860.263 4646.29,859.038 4646.31,857.162L4646.31,769.278C4646.37,767.341 4647.33,766.156 4649.55,766.017L4656.55,766.017C4659.67,766.017 4662.2,768.547 4662.2,771.663L4662.2,779.454L4665.67,779.454C4668.11,779.454 4669.11,781.395 4669.11,782.569L4669.11,805.32C4669.11,806.85 4667.87,808.501 4666.34,808.501L4662.2,808.501ZM4641.12,779.128C4641.12,773.932 4636.9,769.713 4631.7,769.713L4572.25,769.713C4567.06,769.713 4562.84,773.932 4562.84,779.128L4562.84,848.725C4562.84,853.921 4567.06,858.14 4572.25,858.14L4631.7,858.14C4636.9,858.14 4641.12,853.921 4641.12,848.725L4641.12,779.128ZM4631.04,787.253C4631.04,783.419 4627.93,780.306 4624.09,780.306L4580.06,780.306C4576.23,780.306 4573.12,783.419 4573.12,787.253L4573.12,841.017C4573.12,844.851 4576.23,847.964 4580.06,847.964L4624.09,847.964C4627.93,847.964 4631.04,844.851 4631.04,841.017L4631.04,787.253ZM4594.89,817.054C4594.89,818.971 4594.08,820.095 4593.08,821.706L4591.39,824.425C4590.39,826.036 4589.58,828.898 4589.58,830.814L4589.58,841.168C4589.58,843.084 4591.08,844.639 4592.93,844.639L4602.61,844.639C4604.47,844.639 4605.96,843.084 4605.96,841.168L4605.96,830.815C4605.96,828.898 4605.15,826.038 4604.15,824.426L4602.46,821.707C4601.46,820.096 4600.65,818.971 4600.65,817.055L4600.65,813.759L4594.89,813.759L4594.89,817.054L4594.89,817.054ZM4614.99,817.054C4614.99,818.971 4614.18,820.095 4613.18,821.706L4611.49,824.425C4610.49,826.036 4609.68,828.898 4609.68,830.814L4609.68,841.168C4609.68,843.084 4611.18,844.639 4613.03,844.639L4622.72,844.639C4624.57,844.639 4626.06,843.084 4626.06,841.168L4626.06,830.815C4626.06,828.898 4625.25,826.038 4624.25,824.426L4622.56,821.707C4621.56,820.096 4620.75,818.971 4620.75,817.055L4620.75,813.759L4614.99,813.759L4614.99,817.054L4614.99,817.054ZM4600.65,811.556C4600.65,810.146 4599.34,810.043 4597.75,810.043C4596.16,810.043 4594.89,810.146 4594.89,811.556C4594.89,812.966 4594.89,812.934 4594.89,812.934L4600.65,812.934L4600.65,811.556ZM4620.75,811.556C4620.75,810.146 4619.44,810.043 4617.85,810.043C4616.26,810.043 4614.99,810.146 4614.99,811.556C4614.99,812.966 4614.99,812.934 4614.99,812.934L4620.75,812.934L4620.75,811.556ZM4662.2,805.042L4664.99,805.027C4665.42,805.059 4665.73,804.904 4665.76,804.306L4665.76,783.487C4665.75,782.899 4665.45,782.695 4664.98,782.718L4662.2,782.728L4662.2,805.042ZM4625.85,801.079C4625.85,800.2 4625.14,799.487 4624.26,799.487L4579.97,799.487C4579.1,799.487 4578.38,800.2 4578.38,801.079C4578.38,801.957 4579.1,802.67 4579.97,802.67L4624.26,802.67C4625.14,802.67 4625.85,801.957 4625.85,801.079ZM4586.54,783.12C4590.22,783.12 4593.21,786.109 4593.21,789.79C4593.21,793.472 4590.22,796.461 4586.54,796.461C4582.86,796.461 4579.87,793.472 4579.87,789.79C4579.87,786.109 4582.86,783.12 4586.54,783.12ZM4602.36,783.12C4606.04,783.12 4609.03,786.109 4609.03,789.79C4609.03,793.472 4606.04,796.461 4602.36,796.461C4598.67,796.461 4595.69,793.472 4595.69,789.79C4595.69,786.109 4598.67,783.12 4602.36,783.12ZM4618.88,783.12C4622.56,783.12 4625.55,786.109 4625.55,789.79C4625.55,793.472 4622.56,796.461 4618.88,796.461C4615.19,796.461 4612.2,793.472 4612.2,789.79C4612.2,786.109 4615.19,783.12 4618.88,783.12ZM4591.31,789.807C4591.31,789.024 4590.67,788.389 4589.89,788.389L4587.15,788.389C4586.37,788.389 4585.73,789.024 4585.73,789.807C4585.73,790.589 4586.37,791.224 4587.15,791.224L4589.89,791.224C4590.67,791.224 4591.31,790.589 4591.31,789.807ZM4607.12,789.807C4607.12,789.024 4606.48,788.389 4605.7,788.389L4602.97,788.389C4602.19,788.389 4601.55,789.024 4601.55,789.807C4601.55,790.589 4602.19,791.224 4602.97,791.224L4605.7,791.224C4606.48,791.224 4607.12,790.589 4607.12,789.807ZM4623.64,789.807C4623.64,789.024 4623.01,788.389 4622.22,788.389L4619.49,788.389C4618.7,788.389 4618.07,789.024 4618.07,789.807C4618.07,790.589 4618.7,791.224 4619.49,791.224L4622.22,791.224C4623.01,791.224 4623.64,790.589 4623.64,789.807Z" style="fill:rgb(155,155,155);"/>
        </g>
    </g>
</svg>
