<?xml version="1.0" encoding="UTF-8" standalone="no"?>
<!DOCTYPE svg PUBLIC "-//W3C//DTD SVG 1.1//EN" "http://www.w3.org/Graphics/SVG/1.1/DTD/svg11.dtd">
<svg width="100%" height="100%" viewBox="0 0 16 16" version="1.1" xmlns="http://www.w3.org/2000/svg" xmlns:xlink="http://www.w3.org/1999/xlink" xml:space="preserve" xmlns:serif="http://www.serif.com/" style="fill-rule:evenodd;clip-rule:evenodd;stroke-linejoin:round;stroke-miterlimit:2;">
    <g transform="matrix(1,0,0,1,-962.244,-883.973)">
        <g transform="matrix(0.765063,-2.03979e-32,-2.03979e-32,-0.765063,868.954,1141.04)">
            <path d="M139.766,322.619C139.299,321.491 140.286,319.359 139.436,318.509C138.586,317.66 136.454,318.646 135.327,318.179C134.239,317.728 133.439,315.507 132.188,315.507C130.937,315.507 130.137,317.728 129.049,318.179C127.922,318.646 125.79,317.66 124.94,318.509C124.091,319.359 125.077,321.491 124.61,322.618C124.159,323.706 121.938,324.506 121.938,325.757C121.938,327.008 124.159,327.808 124.61,328.896C125.077,330.023 124.09,332.155 124.94,333.005C125.79,333.855 127.922,332.868 129.049,333.335C130.137,333.786 130.937,336.007 132.188,336.007C133.439,336.007 134.239,333.786 135.326,333.335C136.454,332.868 138.586,333.855 139.436,333.005C140.285,332.155 139.299,330.023 139.766,328.896C140.217,327.808 142.438,327.008 142.438,325.757C142.438,324.506 140.217,323.706 139.766,322.619ZM132.188,331.607C131.363,331.607 130.694,330.938 130.694,330.113C130.694,329.288 131.363,328.619 132.188,328.619C133.013,328.619 133.682,329.288 133.682,330.113C133.682,330.938 133.013,331.607 132.188,331.607ZM133.688,326.013C133.688,326.841 133.017,327.513 132.188,327.513C131.359,327.513 130.688,326.841 130.688,326.013L130.688,321.401C130.688,320.573 131.359,319.901 132.188,319.901C133.017,319.901 133.688,320.573 133.688,321.401L133.688,326.013Z" style="fill:rgb(202,202,202);fill-rule:nonzero;"/>
        </g>
    </g>
</svg>
