<?xml version="1.0" encoding="UTF-8" standalone="no"?>
<!DOCTYPE svg PUBLIC "-//W3C//DTD SVG 1.1//EN" "http://www.w3.org/Graphics/SVG/1.1/DTD/svg11.dtd">


<svg class="grid-icons" viewBox="0 0 22 21" version="1.1" xmlns="http://www.w3.org/2000/svg" xmlns:xlink="http://www.w3.org/1999/xlink" xml:space="preserve" xmlns:serif="http://www.serif.com/" style="fill-rule:evenodd;clip-rule:evenodd;stroke-linejoin:round;stroke-miterlimit:2;">
    <g transform="matrix(1,0,0,1,-325.9,-2080.61)">
        <g transform="matrix(0.1897,0,0,0.1897,-506.991,1918.42)">
            <path d="M4409.91,920.769C4416.11,924.419 4429.51,924.074 4437.06,921.26L4437.06,949.618C4437.06,956.818 4430.98,962.652 4423.48,962.652C4415.99,962.652 4409.91,956.818 4409.91,949.618L4409.91,920.769ZM4473.2,903.045C4473.2,903.045 4448.26,917.465 4421.82,917.465C4404.57,917.465 4390.58,903.478 4390.58,886.222C4390.58,868.966 4404.57,854.979 4421.82,854.979C4448.26,854.979 4473.2,869.399 4473.2,869.399L4473.2,903.045ZM4506.02,894.034C4506,894.876 4505.68,895.699 4505.1,896.205C4499.11,901.385 4495.58,898.118 4492.74,895.492C4492.06,894.856 4491.4,894.255 4490.71,893.741C4486.85,890.876 4483.68,894.935 4483.33,895.408C4481.05,898.474 4478.1,894.881 4480.34,891.785C4482.28,889.107 4487.37,885.099 4492.79,889.122C4493.66,889.766 4494.42,890.473 4495.16,891.157C4497.78,893.582 4498.96,894.513 4502.83,891.793C4503.5,891.323 4505.18,891.557 4505.68,892.513C4505.92,892.98 4506.03,893.511 4506.02,894.034ZM4433.84,886.222C4433.84,892.86 4428.46,898.239 4421.82,898.239C4415.19,898.239 4409.81,892.86 4409.81,886.222C4409.81,879.584 4415.19,874.206 4421.82,874.206C4428.46,874.206 4433.84,879.584 4433.84,886.222ZM4506.02,881.929C4506,882.771 4505.68,883.594 4505.1,884.099C4499.11,889.28 4495.58,886.012 4492.74,883.387C4492.06,882.751 4491.4,882.15 4490.71,881.635C4486.85,878.771 4483.68,882.83 4483.33,883.303C4481.05,886.368 4478.1,882.775 4480.34,879.68C4482.28,877.002 4487.37,872.993 4492.79,877.016C4493.66,877.661 4494.42,878.368 4495.16,879.051C4497.78,881.476 4498.96,882.407 4502.83,879.688C4503.5,879.218 4505.18,879.451 4505.68,880.408C4505.92,880.874 4506.03,881.406 4506.02,881.929Z" style="fill:rgb(155,155,155);"/>
        </g>
    </g>
</svg>
