<?xml version="1.0" encoding="UTF-8" standalone="no"?>
<!DOCTYPE svg PUBLIC "-//W3C//DTD SVG 1.1//EN" "http://www.w3.org/Graphics/SVG/1.1/DTD/svg11.dtd">
<svg width="100%" height="100%" viewBox="0 0 101 108" version="1.1" xmlns="http://www.w3.org/2000/svg" xmlns:xlink="http://www.w3.org/1999/xlink" xml:space="preserve" xmlns:serif="http://www.serif.com/" style="fill-rule:evenodd;clip-rule:evenodd;stroke-linejoin:round;stroke-miterlimit:2;">
    <g transform="matrix(1,0,0,1,-1789.09,-848.597)">
        <g transform="matrix(4.16667,0,0,4.16667,0,0)">
            <g transform="matrix(0.24,0,0,0.24,24.2377,1.73656)">
                <path d="M1727.51,859.316L1738.55,845.128C1741.94,841.075 1746.03,840.414 1750.71,842.562L1758.57,848.777C1757.35,850.753 1756.65,853.077 1756.65,855.565C1756.65,862.737 1762.47,868.559 1769.64,868.559C1773.22,868.559 1776.45,867.117 1778.8,864.783L1785.69,870.234C1789.49,873.862 1789.52,877.944 1787.22,882.306L1775.35,897.309L1769.61,892.6C1766.95,892.912 1765.27,895.172 1765.53,897.769L1771.27,902.476L1738.03,944.499C1734.86,948.805 1727.96,949.41 1724.89,946.933L1718.33,941.709C1719.35,939.853 1719.93,937.722 1719.93,935.456C1719.93,928.284 1714.11,922.461 1706.94,922.461C1703.59,922.461 1700.53,923.73 1698.23,925.813L1690.87,919.93C1687.6,916.303 1687.02,912.124 1690.27,907.155L1723.46,864.515L1730.19,869.915C1732.77,869.5 1734.65,867.401 1734.28,864.746L1727.51,859.316ZM1758.7,892.346L1751.21,886.48C1751.05,883.965 1752.79,881.748 1755.29,881.311L1762.78,887.177C1763.04,889.643 1761.33,891.886 1758.7,892.346ZM1744.38,881.035L1736.89,875.168C1736.73,872.654 1738.48,870.436 1740.98,869.999L1748.47,875.866C1748.73,878.331 1747.02,880.574 1744.38,881.035Z" style="fill:rgb(24,48,65);"/>
            </g>
        </g>
    </g>
</svg>
