<?xml version="1.0" encoding="UTF-8" standalone="no"?>
<!DOCTYPE svg PUBLIC "-//W3C//DTD SVG 1.1//EN" "http://www.w3.org/Graphics/SVG/1.1/DTD/svg11.dtd">
<svg class="grid-icons" viewBox="0 0 19 19" version="1.1" xmlns="http://www.w3.org/2000/svg" xmlns:xlink="http://www.w3.org/1999/xlink" xml:space="preserve" xmlns:serif="http://www.serif.com/" style="fill-rule:evenodd;clip-rule:evenodd;stroke-linejoin:round;stroke-miterlimit:2;">
    <g transform="matrix(1,0,0,1,-453.114,-2118.76)">
        <g transform="matrix(0.220778,0,0,0.220778,-538.559,2071.64)">
            <path d="M4556.9,292.534C4556.9,290.703 4555.42,289.217 4553.59,289.217L4518.49,289.217C4516.66,289.217 4515.17,290.703 4515.17,292.534C4515.17,294.364 4516.66,295.851 4518.49,295.851L4553.59,295.851C4555.42,295.851 4556.9,294.364 4556.9,292.534ZM4491.73,267.372L4491.73,223.058C4491.73,217.739 4496.05,213.427 4501.37,213.427L4567.64,213.427C4572.98,213.427 4577.29,217.739 4577.29,223.058L4577.29,267.372C4577.29,272.691 4572.98,277.004 4567.64,277.004L4544.12,277.004C4544.95,279.182 4545.97,282.038 4545.97,282.038C4546.9,284.759 4544.98,286.61 4543.26,286.61L4528.2,286.61C4526.49,286.61 4524.43,284.973 4525.36,282.27C4525.36,282.27 4526.31,279.359 4527.12,277.004L4501.37,277.004C4496.05,277.004 4491.73,272.691 4491.73,267.372ZM4499.22,226.266L4499.23,260.492C4499.23,262.28 4500.66,264.336 4503.13,264.336L4565.53,264.336C4568.04,264.336 4569.32,262.733 4569.32,260.223L4569.35,226.011C4569.32,224.422 4568.24,222.351 4565.74,222.351L4503.81,222.351C4500.74,222.351 4499.22,224.21 4499.22,226.266Z" style="fill:rgb(155,155,155);"/>
        </g>
    </g>
</svg>
