<?xml version="1.0" encoding="UTF-8" standalone="no"?>
<!DOCTYPE svg PUBLIC "-//W3C//DTD SVG 1.1//EN" "http://www.w3.org/Graphics/SVG/1.1/DTD/svg11.dtd">
<svg class="grid-icons" viewBox="0 0 21 17" version="1.1" xmlns="http://www.w3.org/2000/svg" xmlns:xlink="http://www.w3.org/1999/xlink" xml:space="preserve" xmlns:serif="http://www.serif.com/" style="fill-rule:evenodd;clip-rule:evenodd;stroke-linejoin:round;stroke-miterlimit:2;">
    <g transform="matrix(1,0,0,1,-198.71,-2081.84)">
        <path d="M208.975,2081.84C212.675,2081.84 216.151,2083.28 218.763,2085.91C219.401,2086.55 219.399,2087.59 218.759,2088.23L218.754,2088.24C218.11,2088.88 217.07,2088.87 216.43,2088.23C214.441,2086.22 211.793,2085.12 208.975,2085.12C206.169,2085.12 203.532,2086.22 201.547,2088.2C201.536,2088.21 201.522,2088.22 201.516,2088.23C200.876,2088.87 199.838,2088.88 199.195,2088.24C198.551,2087.6 198.548,2086.56 199.187,2085.91C201.762,2083.31 205.273,2081.84 208.975,2081.84ZM204.03,2089.97C205.347,2088.67 207.104,2087.9 208.975,2087.9C210.847,2087.9 212.603,2088.64 213.919,2089.97C214.553,2090.62 214.547,2091.65 213.91,2092.29L213.9,2092.3C213.253,2092.93 212.213,2092.93 211.576,2092.28C210.883,2091.57 209.959,2091.19 208.975,2091.19C208.002,2091.19 207.087,2091.57 206.396,2092.26C206.385,2092.27 206.374,2092.28 206.364,2092.29C205.727,2092.93 204.693,2092.93 204.049,2092.3C203.403,2091.66 203.394,2090.62 204.03,2089.97ZM206.815,2096.33C206.815,2095.06 207.845,2094.03 209.114,2094.03C210.383,2094.03 211.414,2095.06 211.414,2096.33C211.414,2097.6 210.383,2098.63 209.114,2098.63C207.845,2098.63 206.815,2097.6 206.815,2096.33Z" style="fill:rgb(155,155,155);"/>
    </g>
</svg>
